# xmcd CD database file
#
# Track frame offsets:
#	183
#	5905
#	49318
#	69908
#	85578
#	105225
#	122788
#	173040
#	193768
#
# Disc length: 2878 seconds
#
# Revision: 2
# Processed by: cddbd v1.5.2PL0 Copyright (c) Steve Scherf et al.
# Submitted via: CDex 1.51
#
DISCID=6f0b3c09
DTITLE=Jean-Michel Jarre - Jean Michel Jarre In Concert Houston Lyon
DYEAR=1987
DGENRE=New Age
TTITLE0=Oxygene V
TTITLE1=Ethnicolor
TTITLE2=Chants Magnetiques I
TTITLE3=Souvenir de Chine
TTITLE4=Equinoxe V
TTITLE5=Rendez-Vous III ( Harper Laser )
TTITLE6=Rendez-Vous II
TTITLE7=Ron's Piece
TTITLE8=Rendez-Vous IV
EXTD=YEAR: 1987
EXTT0=
EXTT1=
EXTT2=
EXTT3=
EXTT4=
EXTT5=
EXTT6=
EXTT7=
EXTT8=
PLAYORDER=
